<mxfile host="app.diagrams.net" modified="2023-10-04T09:03:12.581Z" agent="Mozilla/5.0 (Windows NT 10.0; Win64; x64) AppleWebKit/537.36 (KHTML, like Gecko) Chrome/117.0.0.0 Safari/537.36 Edg/117.0.2045.47" etag="2S_-U_RP6lESz6xS8zKB" version="22.0.2" type="device">
  <diagram name="Страница — 1" id="rg1ldtWJ6weWj-372TKf">
    <mxGraphModel dx="2345" dy="1056" grid="1" gridSize="10" guides="1" tooltips="1" connect="1" arrows="1" fold="1" page="1" pageScale="1" pageWidth="827" pageHeight="1169" math="0" shadow="0">
      <root>
        <mxCell id="0" />
        <mxCell id="1" parent="0" />
        <mxCell id="JsKE7e4aPNdpGavhSwng-1" value="&lt;font style=&quot;font-size: 8px;&quot;&gt;Проверка наличия брони на данный спектакль&lt;/font&gt;" style="rounded=0;whiteSpace=wrap;html=1;gradientColor=none;glass=0;shadow=0;" vertex="1" parent="1">
          <mxGeometry x="664.9999999999998" y="786" width="155" height="90" as="geometry" />
        </mxCell>
        <mxCell id="JsKE7e4aPNdpGavhSwng-2" value="" style="endArrow=none;html=1;rounded=0;exitX=0.003;exitY=0.15;exitDx=0;exitDy=0;entryX=0.077;entryY=0;entryDx=0;entryDy=0;entryPerimeter=0;jumpSize=100;endSize=6;jumpStyle=none;exitPerimeter=0;" edge="1" parent="1" source="JsKE7e4aPNdpGavhSwng-1" target="JsKE7e4aPNdpGavhSwng-1">
          <mxGeometry width="50" height="50" relative="1" as="geometry">
            <mxPoint x="664.9999999999998" y="799.3199999999997" as="sourcePoint" />
            <mxPoint x="679.5199999999998" y="786" as="targetPoint" />
          </mxGeometry>
        </mxCell>
        <mxCell id="JsKE7e4aPNdpGavhSwng-3" value="0р." style="text;html=1;align=center;verticalAlign=middle;resizable=0;points=[];autosize=1;strokeColor=none;fillColor=none;fontSize=5;" vertex="1" parent="1">
          <mxGeometry x="660.9999999999998" y="786" width="30" height="20" as="geometry" />
        </mxCell>
        <mxCell id="JsKE7e4aPNdpGavhSwng-4" value="" style="endArrow=none;html=1;rounded=0;exitX=0.002;exitY=0.635;exitDx=0;exitDy=0;exitPerimeter=0;entryX=1.005;entryY=0.786;entryDx=0;entryDy=0;entryPerimeter=0;" edge="1" parent="1">
          <mxGeometry width="50" height="50" relative="1" as="geometry">
            <mxPoint x="665.24" y="856.0999999999999" as="sourcePoint" />
            <mxPoint x="820.7750000000001" y="855.7399999999998" as="targetPoint" />
          </mxGeometry>
        </mxCell>
        <mxCell id="JsKE7e4aPNdpGavhSwng-5" value="3.2.1" style="text;html=1;align=center;verticalAlign=middle;resizable=0;points=[];autosize=1;strokeColor=none;fillColor=none;fontSize=8;" vertex="1" parent="1">
          <mxGeometry x="663.9999999999998" y="856" width="36" height="22" as="geometry" />
        </mxCell>
        <mxCell id="JsKE7e4aPNdpGavhSwng-6" value="" style="endArrow=none;html=1;rounded=0;entryX=0.5;entryY=1;entryDx=0;entryDy=0;" edge="1" parent="1">
          <mxGeometry width="50" height="50" relative="1" as="geometry">
            <mxPoint x="742.44" y="856" as="sourcePoint" />
            <mxPoint x="742.44" y="876" as="targetPoint" />
          </mxGeometry>
        </mxCell>
        <mxCell id="JsKE7e4aPNdpGavhSwng-7" style="edgeStyle=orthogonalEdgeStyle;rounded=0;orthogonalLoop=1;jettySize=auto;html=1;exitX=1;exitY=0.5;exitDx=0;exitDy=0;entryX=0;entryY=0.5;entryDx=0;entryDy=0;" edge="1" parent="1" source="JsKE7e4aPNdpGavhSwng-8" target="JsKE7e4aPNdpGavhSwng-22">
          <mxGeometry relative="1" as="geometry" />
        </mxCell>
        <mxCell id="JsKE7e4aPNdpGavhSwng-8" value="&lt;font style=&quot;font-size: 8px;&quot;&gt;Возврат денег пользователям&lt;/font&gt;" style="rounded=0;whiteSpace=wrap;html=1;gradientColor=none;glass=0;shadow=0;" vertex="1" parent="1">
          <mxGeometry x="870.23" y="786" width="155" height="90" as="geometry" />
        </mxCell>
        <mxCell id="JsKE7e4aPNdpGavhSwng-9" value="" style="endArrow=none;html=1;rounded=0;exitX=0.003;exitY=0.15;exitDx=0;exitDy=0;entryX=0.077;entryY=0;entryDx=0;entryDy=0;entryPerimeter=0;jumpSize=100;endSize=6;jumpStyle=none;exitPerimeter=0;" edge="1" parent="1" source="JsKE7e4aPNdpGavhSwng-8" target="JsKE7e4aPNdpGavhSwng-8">
          <mxGeometry width="50" height="50" relative="1" as="geometry">
            <mxPoint x="870.23" y="799.3199999999997" as="sourcePoint" />
            <mxPoint x="884.75" y="786" as="targetPoint" />
          </mxGeometry>
        </mxCell>
        <mxCell id="JsKE7e4aPNdpGavhSwng-10" value="0р." style="text;html=1;align=center;verticalAlign=middle;resizable=0;points=[];autosize=1;strokeColor=none;fillColor=none;fontSize=5;" vertex="1" parent="1">
          <mxGeometry x="866.23" y="786" width="30" height="20" as="geometry" />
        </mxCell>
        <mxCell id="JsKE7e4aPNdpGavhSwng-11" value="" style="endArrow=none;html=1;rounded=0;exitX=0.002;exitY=0.635;exitDx=0;exitDy=0;exitPerimeter=0;entryX=1.005;entryY=0.786;entryDx=0;entryDy=0;entryPerimeter=0;" edge="1" parent="1">
          <mxGeometry width="50" height="50" relative="1" as="geometry">
            <mxPoint x="870.4700000000003" y="856.0999999999999" as="sourcePoint" />
            <mxPoint x="1026.005" y="855.7399999999998" as="targetPoint" />
          </mxGeometry>
        </mxCell>
        <mxCell id="JsKE7e4aPNdpGavhSwng-12" value="3.2.2" style="text;html=1;align=center;verticalAlign=middle;resizable=0;points=[];autosize=1;strokeColor=none;fillColor=none;fontSize=8;" vertex="1" parent="1">
          <mxGeometry x="869.23" y="856" width="36" height="22" as="geometry" />
        </mxCell>
        <mxCell id="JsKE7e4aPNdpGavhSwng-13" value="" style="endArrow=none;html=1;rounded=0;entryX=0.5;entryY=1;entryDx=0;entryDy=0;" edge="1" parent="1">
          <mxGeometry width="50" height="50" relative="1" as="geometry">
            <mxPoint x="947.6700000000001" y="856" as="sourcePoint" />
            <mxPoint x="947.6700000000001" y="876" as="targetPoint" />
          </mxGeometry>
        </mxCell>
        <mxCell id="JsKE7e4aPNdpGavhSwng-14" style="edgeStyle=orthogonalEdgeStyle;rounded=0;orthogonalLoop=1;jettySize=auto;html=1;entryX=0;entryY=0.75;entryDx=0;entryDy=0;" edge="1" parent="1" source="JsKE7e4aPNdpGavhSwng-15" target="JsKE7e4aPNdpGavhSwng-132">
          <mxGeometry relative="1" as="geometry">
            <mxPoint x="1632" y="746" as="targetPoint" />
          </mxGeometry>
        </mxCell>
        <mxCell id="JsKE7e4aPNdpGavhSwng-15" value="&lt;font style=&quot;font-size: 8px;&quot;&gt;Обновление информации в системе&lt;/font&gt;" style="rounded=0;whiteSpace=wrap;html=1;gradientColor=none;glass=0;shadow=0;" vertex="1" parent="1">
          <mxGeometry x="1303.7799999999997" y="786" width="155" height="90" as="geometry" />
        </mxCell>
        <mxCell id="JsKE7e4aPNdpGavhSwng-16" value="" style="endArrow=none;html=1;rounded=0;exitX=0.003;exitY=0.15;exitDx=0;exitDy=0;entryX=0.077;entryY=0;entryDx=0;entryDy=0;entryPerimeter=0;jumpSize=100;endSize=6;jumpStyle=none;exitPerimeter=0;" edge="1" parent="1" source="JsKE7e4aPNdpGavhSwng-15" target="JsKE7e4aPNdpGavhSwng-15">
          <mxGeometry width="50" height="50" relative="1" as="geometry">
            <mxPoint x="1302.9999999999995" y="799.3199999999997" as="sourcePoint" />
            <mxPoint x="1317.52" y="786" as="targetPoint" />
          </mxGeometry>
        </mxCell>
        <mxCell id="JsKE7e4aPNdpGavhSwng-17" value="0р." style="text;html=1;align=center;verticalAlign=middle;resizable=0;points=[];autosize=1;strokeColor=none;fillColor=none;fontSize=5;" vertex="1" parent="1">
          <mxGeometry x="1298.9999999999995" y="786" width="30" height="20" as="geometry" />
        </mxCell>
        <mxCell id="JsKE7e4aPNdpGavhSwng-18" value="" style="endArrow=none;html=1;rounded=0;exitX=0.002;exitY=0.635;exitDx=0;exitDy=0;exitPerimeter=0;entryX=1.005;entryY=0.786;entryDx=0;entryDy=0;entryPerimeter=0;" edge="1" parent="1">
          <mxGeometry width="50" height="50" relative="1" as="geometry">
            <mxPoint x="1303.2399999999998" y="856.0999999999999" as="sourcePoint" />
            <mxPoint x="1458.7750000000003" y="855.7399999999998" as="targetPoint" />
          </mxGeometry>
        </mxCell>
        <mxCell id="JsKE7e4aPNdpGavhSwng-19" value="3.2.4" style="text;html=1;align=center;verticalAlign=middle;resizable=0;points=[];autosize=1;strokeColor=none;fillColor=none;fontSize=8;" vertex="1" parent="1">
          <mxGeometry x="1301.9999999999995" y="856" width="36" height="22" as="geometry" />
        </mxCell>
        <mxCell id="JsKE7e4aPNdpGavhSwng-20" value="" style="endArrow=none;html=1;rounded=0;entryX=0.5;entryY=1;entryDx=0;entryDy=0;" edge="1" parent="1">
          <mxGeometry width="50" height="50" relative="1" as="geometry">
            <mxPoint x="1380.4400000000003" y="856" as="sourcePoint" />
            <mxPoint x="1380.4400000000003" y="876" as="targetPoint" />
          </mxGeometry>
        </mxCell>
        <mxCell id="JsKE7e4aPNdpGavhSwng-21" style="edgeStyle=orthogonalEdgeStyle;rounded=0;orthogonalLoop=1;jettySize=auto;html=1;exitX=1;exitY=0.5;exitDx=0;exitDy=0;entryX=0;entryY=0.5;entryDx=0;entryDy=0;" edge="1" parent="1" source="JsKE7e4aPNdpGavhSwng-22" target="JsKE7e4aPNdpGavhSwng-15">
          <mxGeometry relative="1" as="geometry" />
        </mxCell>
        <mxCell id="JsKE7e4aPNdpGavhSwng-22" value="&lt;font style=&quot;font-size: 8px;&quot;&gt;Уведомление пользователей&lt;/font&gt;" style="rounded=0;whiteSpace=wrap;html=1;gradientColor=none;glass=0;shadow=0;" vertex="1" parent="1">
          <mxGeometry x="1097.5600000000002" y="786" width="155" height="90" as="geometry" />
        </mxCell>
        <mxCell id="JsKE7e4aPNdpGavhSwng-23" value="" style="endArrow=none;html=1;rounded=0;exitX=0.003;exitY=0.15;exitDx=0;exitDy=0;entryX=0.077;entryY=0;entryDx=0;entryDy=0;entryPerimeter=0;jumpSize=100;endSize=6;jumpStyle=none;exitPerimeter=0;" edge="1" parent="1" source="JsKE7e4aPNdpGavhSwng-22" target="JsKE7e4aPNdpGavhSwng-22">
          <mxGeometry width="50" height="50" relative="1" as="geometry">
            <mxPoint x="1096.78" y="799.3199999999997" as="sourcePoint" />
            <mxPoint x="1111.3000000000004" y="786" as="targetPoint" />
          </mxGeometry>
        </mxCell>
        <mxCell id="JsKE7e4aPNdpGavhSwng-24" value="0р." style="text;html=1;align=center;verticalAlign=middle;resizable=0;points=[];autosize=1;strokeColor=none;fillColor=none;fontSize=5;" vertex="1" parent="1">
          <mxGeometry x="1093.3899999999999" y="785" width="30" height="20" as="geometry" />
        </mxCell>
        <mxCell id="JsKE7e4aPNdpGavhSwng-25" value="" style="endArrow=none;html=1;rounded=0;exitX=0.002;exitY=0.635;exitDx=0;exitDy=0;exitPerimeter=0;entryX=1.005;entryY=0.786;entryDx=0;entryDy=0;entryPerimeter=0;" edge="1" parent="1">
          <mxGeometry width="50" height="50" relative="1" as="geometry">
            <mxPoint x="1097.0200000000002" y="856.0999999999999" as="sourcePoint" />
            <mxPoint x="1252.5550000000005" y="855.7399999999998" as="targetPoint" />
          </mxGeometry>
        </mxCell>
        <mxCell id="JsKE7e4aPNdpGavhSwng-26" value="3.2.3" style="text;html=1;align=center;verticalAlign=middle;resizable=0;points=[];autosize=1;strokeColor=none;fillColor=none;fontSize=8;" vertex="1" parent="1">
          <mxGeometry x="1095.78" y="856" width="36" height="22" as="geometry" />
        </mxCell>
        <mxCell id="JsKE7e4aPNdpGavhSwng-27" value="" style="endArrow=none;html=1;rounded=0;entryX=0.5;entryY=1;entryDx=0;entryDy=0;" edge="1" parent="1">
          <mxGeometry width="50" height="50" relative="1" as="geometry">
            <mxPoint x="1174.2200000000005" y="856" as="sourcePoint" />
            <mxPoint x="1174.2200000000005" y="876" as="targetPoint" />
          </mxGeometry>
        </mxCell>
        <mxCell id="JsKE7e4aPNdpGavhSwng-28" value="" style="endArrow=classic;html=1;rounded=0;exitX=1;exitY=0.5;exitDx=0;exitDy=0;entryX=0;entryY=0.5;entryDx=0;entryDy=0;" edge="1" parent="1" source="JsKE7e4aPNdpGavhSwng-1" target="JsKE7e4aPNdpGavhSwng-8">
          <mxGeometry width="50" height="50" relative="1" as="geometry">
            <mxPoint x="821" y="937" as="sourcePoint" />
            <mxPoint x="871" y="887" as="targetPoint" />
          </mxGeometry>
        </mxCell>
        <mxCell id="JsKE7e4aPNdpGavhSwng-29" value="&lt;font style=&quot;font-size: 8px;&quot;&gt;Распределение каждого спектакля на определенное время&lt;/font&gt;" style="rounded=0;whiteSpace=wrap;html=1;gradientColor=none;glass=0;shadow=0;" vertex="1" parent="1">
          <mxGeometry x="297.77999999999975" y="310" width="155" height="90" as="geometry" />
        </mxCell>
        <mxCell id="JsKE7e4aPNdpGavhSwng-30" value="" style="endArrow=none;html=1;rounded=0;exitX=0.003;exitY=0.15;exitDx=0;exitDy=0;entryX=0.077;entryY=0;entryDx=0;entryDy=0;entryPerimeter=0;jumpSize=100;endSize=6;jumpStyle=none;exitPerimeter=0;" edge="1" parent="1" source="JsKE7e4aPNdpGavhSwng-29" target="JsKE7e4aPNdpGavhSwng-29">
          <mxGeometry width="50" height="50" relative="1" as="geometry">
            <mxPoint x="297.77999999999975" y="323.3199999999997" as="sourcePoint" />
            <mxPoint x="312.3000000000002" y="310" as="targetPoint" />
          </mxGeometry>
        </mxCell>
        <mxCell id="JsKE7e4aPNdpGavhSwng-31" value="0р." style="text;html=1;align=center;verticalAlign=middle;resizable=0;points=[];autosize=1;strokeColor=none;fillColor=none;fontSize=5;" vertex="1" parent="1">
          <mxGeometry x="293.77999999999975" y="310" width="30" height="20" as="geometry" />
        </mxCell>
        <mxCell id="JsKE7e4aPNdpGavhSwng-32" value="" style="endArrow=none;html=1;rounded=0;exitX=0.002;exitY=0.635;exitDx=0;exitDy=0;exitPerimeter=0;entryX=1.005;entryY=0.786;entryDx=0;entryDy=0;entryPerimeter=0;" edge="1" parent="1">
          <mxGeometry width="50" height="50" relative="1" as="geometry">
            <mxPoint x="298.02" y="380.0999999999999" as="sourcePoint" />
            <mxPoint x="453.5550000000003" y="379.7399999999998" as="targetPoint" />
          </mxGeometry>
        </mxCell>
        <mxCell id="JsKE7e4aPNdpGavhSwng-33" value="1.1.2" style="text;html=1;align=center;verticalAlign=middle;resizable=0;points=[];autosize=1;strokeColor=none;fillColor=none;fontSize=8;" vertex="1" parent="1">
          <mxGeometry x="294.77999999999975" y="381" width="40" height="20" as="geometry" />
        </mxCell>
        <mxCell id="JsKE7e4aPNdpGavhSwng-34" value="" style="endArrow=none;html=1;rounded=0;entryX=0.5;entryY=1;entryDx=0;entryDy=0;" edge="1" parent="1">
          <mxGeometry width="50" height="50" relative="1" as="geometry">
            <mxPoint x="375.22000000000025" y="380" as="sourcePoint" />
            <mxPoint x="375.22000000000025" y="400" as="targetPoint" />
          </mxGeometry>
        </mxCell>
        <mxCell id="JsKE7e4aPNdpGavhSwng-35" style="edgeStyle=orthogonalEdgeStyle;rounded=0;orthogonalLoop=1;jettySize=auto;html=1;exitX=0.5;exitY=1;exitDx=0;exitDy=0;entryX=0;entryY=0.5;entryDx=0;entryDy=0;" edge="1" parent="1" source="JsKE7e4aPNdpGavhSwng-36" target="JsKE7e4aPNdpGavhSwng-136">
          <mxGeometry relative="1" as="geometry">
            <Array as="points">
              <mxPoint x="375" y="561" />
              <mxPoint x="487" y="561" />
              <mxPoint x="487" y="356" />
            </Array>
          </mxGeometry>
        </mxCell>
        <mxCell id="JsKE7e4aPNdpGavhSwng-36" value="&lt;font style=&quot;font-size: 8px;&quot;&gt;Обновление информации в базе данных&lt;/font&gt;" style="rounded=0;whiteSpace=wrap;html=1;gradientColor=none;glass=0;shadow=0;" vertex="1" parent="1">
          <mxGeometry x="297.77999999999975" y="451" width="155" height="90" as="geometry" />
        </mxCell>
        <mxCell id="JsKE7e4aPNdpGavhSwng-37" value="" style="endArrow=none;html=1;rounded=0;exitX=0.003;exitY=0.15;exitDx=0;exitDy=0;entryX=0.077;entryY=0;entryDx=0;entryDy=0;entryPerimeter=0;jumpSize=100;endSize=6;jumpStyle=none;exitPerimeter=0;" edge="1" parent="1" source="JsKE7e4aPNdpGavhSwng-36" target="JsKE7e4aPNdpGavhSwng-36">
          <mxGeometry width="50" height="50" relative="1" as="geometry">
            <mxPoint x="297" y="464.3199999999997" as="sourcePoint" />
            <mxPoint x="311.52" y="451" as="targetPoint" />
          </mxGeometry>
        </mxCell>
        <mxCell id="JsKE7e4aPNdpGavhSwng-38" value="0р." style="text;html=1;align=center;verticalAlign=middle;resizable=0;points=[];autosize=1;strokeColor=none;fillColor=none;fontSize=5;" vertex="1" parent="1">
          <mxGeometry x="293" y="451" width="30" height="20" as="geometry" />
        </mxCell>
        <mxCell id="JsKE7e4aPNdpGavhSwng-39" value="" style="endArrow=none;html=1;rounded=0;exitX=0.002;exitY=0.635;exitDx=0;exitDy=0;exitPerimeter=0;entryX=1.005;entryY=0.786;entryDx=0;entryDy=0;entryPerimeter=0;" edge="1" parent="1">
          <mxGeometry width="50" height="50" relative="1" as="geometry">
            <mxPoint x="297.2399999999998" y="521.0999999999999" as="sourcePoint" />
            <mxPoint x="452.7750000000001" y="520.7399999999998" as="targetPoint" />
          </mxGeometry>
        </mxCell>
        <mxCell id="JsKE7e4aPNdpGavhSwng-40" value="1.1.3" style="text;html=1;align=center;verticalAlign=middle;resizable=0;points=[];autosize=1;strokeColor=none;fillColor=none;fontSize=8;" vertex="1" parent="1">
          <mxGeometry x="294" y="522" width="40" height="20" as="geometry" />
        </mxCell>
        <mxCell id="JsKE7e4aPNdpGavhSwng-41" value="" style="endArrow=none;html=1;rounded=0;entryX=0.5;entryY=1;entryDx=0;entryDy=0;" edge="1" parent="1">
          <mxGeometry width="50" height="50" relative="1" as="geometry">
            <mxPoint x="375.1" y="521" as="sourcePoint" />
            <mxPoint x="375.1" y="541" as="targetPoint" />
          </mxGeometry>
        </mxCell>
        <mxCell id="JsKE7e4aPNdpGavhSwng-42" value="" style="endArrow=classic;html=1;rounded=0;exitX=1;exitY=0.5;exitDx=0;exitDy=0;entryX=0;entryY=0.5;entryDx=0;entryDy=0;" edge="1" parent="1" target="JsKE7e4aPNdpGavhSwng-29">
          <mxGeometry width="50" height="50" relative="1" as="geometry">
            <mxPoint x="242.77999999999975" y="355" as="sourcePoint" />
            <mxPoint x="293.77999999999975" y="411" as="targetPoint" />
          </mxGeometry>
        </mxCell>
        <mxCell id="JsKE7e4aPNdpGavhSwng-43" value="" style="endArrow=classic;html=1;rounded=0;exitX=0.5;exitY=1;exitDx=0;exitDy=0;entryX=0.5;entryY=0;entryDx=0;entryDy=0;" edge="1" parent="1" source="JsKE7e4aPNdpGavhSwng-29" target="JsKE7e4aPNdpGavhSwng-36">
          <mxGeometry width="50" height="50" relative="1" as="geometry">
            <mxPoint x="473.77999999999975" y="491" as="sourcePoint" />
            <mxPoint x="383.77999999999975" y="441" as="targetPoint" />
          </mxGeometry>
        </mxCell>
        <mxCell id="JsKE7e4aPNdpGavhSwng-44" value="&lt;font style=&quot;font-size: 8px;&quot;&gt;Выбор спектакля&lt;/font&gt;" style="rounded=0;whiteSpace=wrap;html=1;gradientColor=none;glass=0;shadow=0;" vertex="1" parent="1">
          <mxGeometry x="652.7799999999997" y="311" width="155" height="90" as="geometry" />
        </mxCell>
        <mxCell id="JsKE7e4aPNdpGavhSwng-45" value="" style="endArrow=none;html=1;rounded=0;exitX=0.003;exitY=0.15;exitDx=0;exitDy=0;entryX=0.077;entryY=0;entryDx=0;entryDy=0;entryPerimeter=0;jumpSize=100;endSize=6;jumpStyle=none;exitPerimeter=0;" edge="1" parent="1" source="JsKE7e4aPNdpGavhSwng-44" target="JsKE7e4aPNdpGavhSwng-44">
          <mxGeometry width="50" height="50" relative="1" as="geometry">
            <mxPoint x="652.7799999999997" y="324.3199999999997" as="sourcePoint" />
            <mxPoint x="667.3000000000002" y="311" as="targetPoint" />
          </mxGeometry>
        </mxCell>
        <mxCell id="JsKE7e4aPNdpGavhSwng-46" value="0р." style="text;html=1;align=center;verticalAlign=middle;resizable=0;points=[];autosize=1;strokeColor=none;fillColor=none;fontSize=5;" vertex="1" parent="1">
          <mxGeometry x="648.7799999999997" y="311" width="30" height="20" as="geometry" />
        </mxCell>
        <mxCell id="JsKE7e4aPNdpGavhSwng-47" value="" style="endArrow=none;html=1;rounded=0;exitX=0.002;exitY=0.635;exitDx=0;exitDy=0;exitPerimeter=0;entryX=1.005;entryY=0.786;entryDx=0;entryDy=0;entryPerimeter=0;" edge="1" parent="1">
          <mxGeometry width="50" height="50" relative="1" as="geometry">
            <mxPoint x="653.02" y="381.0999999999999" as="sourcePoint" />
            <mxPoint x="808.5550000000003" y="380.7399999999998" as="targetPoint" />
          </mxGeometry>
        </mxCell>
        <mxCell id="JsKE7e4aPNdpGavhSwng-48" value="2.1.1" style="text;html=1;align=center;verticalAlign=middle;resizable=0;points=[];autosize=1;strokeColor=none;fillColor=none;fontSize=8;" vertex="1" parent="1">
          <mxGeometry x="651.7799999999997" y="381" width="36" height="22" as="geometry" />
        </mxCell>
        <mxCell id="JsKE7e4aPNdpGavhSwng-49" value="" style="endArrow=none;html=1;rounded=0;entryX=0.5;entryY=1;entryDx=0;entryDy=0;" edge="1" parent="1">
          <mxGeometry width="50" height="50" relative="1" as="geometry">
            <mxPoint x="730.2200000000003" y="381" as="sourcePoint" />
            <mxPoint x="730.2200000000003" y="401" as="targetPoint" />
          </mxGeometry>
        </mxCell>
        <mxCell id="JsKE7e4aPNdpGavhSwng-50" style="edgeStyle=orthogonalEdgeStyle;rounded=0;orthogonalLoop=1;jettySize=auto;html=1;exitX=1;exitY=0.5;exitDx=0;exitDy=0;entryX=0;entryY=0.5;entryDx=0;entryDy=0;" edge="1" parent="1" source="JsKE7e4aPNdpGavhSwng-51" target="JsKE7e4aPNdpGavhSwng-142">
          <mxGeometry relative="1" as="geometry" />
        </mxCell>
        <mxCell id="JsKE7e4aPNdpGavhSwng-51" value="&lt;font style=&quot;font-size: 8px;&quot;&gt;Выбор даты и времени из календаря расписаний&lt;/font&gt;" style="rounded=0;whiteSpace=wrap;html=1;gradientColor=none;glass=0;shadow=0;" vertex="1" parent="1">
          <mxGeometry x="862.7799999999997" y="311" width="155" height="90" as="geometry" />
        </mxCell>
        <mxCell id="JsKE7e4aPNdpGavhSwng-52" value="" style="endArrow=none;html=1;rounded=0;exitX=0.003;exitY=0.15;exitDx=0;exitDy=0;entryX=0.077;entryY=0;entryDx=0;entryDy=0;entryPerimeter=0;jumpSize=100;endSize=6;jumpStyle=none;exitPerimeter=0;" edge="1" parent="1" source="JsKE7e4aPNdpGavhSwng-51" target="JsKE7e4aPNdpGavhSwng-51">
          <mxGeometry width="50" height="50" relative="1" as="geometry">
            <mxPoint x="862.7799999999997" y="324.3199999999997" as="sourcePoint" />
            <mxPoint x="877.3000000000002" y="311" as="targetPoint" />
          </mxGeometry>
        </mxCell>
        <mxCell id="JsKE7e4aPNdpGavhSwng-53" value="0р." style="text;html=1;align=center;verticalAlign=middle;resizable=0;points=[];autosize=1;strokeColor=none;fillColor=none;fontSize=5;" vertex="1" parent="1">
          <mxGeometry x="858.7799999999997" y="311" width="30" height="20" as="geometry" />
        </mxCell>
        <mxCell id="JsKE7e4aPNdpGavhSwng-54" value="" style="endArrow=none;html=1;rounded=0;exitX=0.002;exitY=0.635;exitDx=0;exitDy=0;exitPerimeter=0;entryX=1.005;entryY=0.786;entryDx=0;entryDy=0;entryPerimeter=0;" edge="1" parent="1">
          <mxGeometry width="50" height="50" relative="1" as="geometry">
            <mxPoint x="863.02" y="381.0999999999999" as="sourcePoint" />
            <mxPoint x="1018.5550000000003" y="380.7399999999998" as="targetPoint" />
          </mxGeometry>
        </mxCell>
        <mxCell id="JsKE7e4aPNdpGavhSwng-55" value="2.1.2" style="text;html=1;align=center;verticalAlign=middle;resizable=0;points=[];autosize=1;strokeColor=none;fillColor=none;fontSize=8;" vertex="1" parent="1">
          <mxGeometry x="861.7799999999997" y="381" width="36" height="22" as="geometry" />
        </mxCell>
        <mxCell id="JsKE7e4aPNdpGavhSwng-56" value="" style="endArrow=none;html=1;rounded=0;entryX=0.5;entryY=1;entryDx=0;entryDy=0;" edge="1" parent="1">
          <mxGeometry width="50" height="50" relative="1" as="geometry">
            <mxPoint x="940.2200000000003" y="381" as="sourcePoint" />
            <mxPoint x="940.2200000000003" y="401" as="targetPoint" />
          </mxGeometry>
        </mxCell>
        <mxCell id="JsKE7e4aPNdpGavhSwng-57" style="edgeStyle=orthogonalEdgeStyle;rounded=0;orthogonalLoop=1;jettySize=auto;html=1;exitX=0;exitY=0.5;exitDx=0;exitDy=0;" edge="1" parent="1" source="JsKE7e4aPNdpGavhSwng-58" target="JsKE7e4aPNdpGavhSwng-139">
          <mxGeometry relative="1" as="geometry" />
        </mxCell>
        <mxCell id="JsKE7e4aPNdpGavhSwng-58" value="&lt;font style=&quot;font-size: 8px;&quot;&gt;Уведомление пользователя об успешном бронировании&lt;/font&gt;" style="rounded=0;whiteSpace=wrap;html=1;gradientColor=none;glass=0;shadow=0;" vertex="1" parent="1">
          <mxGeometry x="846.9999999999998" y="449" width="155" height="90" as="geometry" />
        </mxCell>
        <mxCell id="JsKE7e4aPNdpGavhSwng-59" value="" style="endArrow=none;html=1;rounded=0;exitX=0.003;exitY=0.15;exitDx=0;exitDy=0;entryX=0.077;entryY=0;entryDx=0;entryDy=0;entryPerimeter=0;jumpSize=100;endSize=6;jumpStyle=none;exitPerimeter=0;" edge="1" parent="1" source="JsKE7e4aPNdpGavhSwng-58" target="JsKE7e4aPNdpGavhSwng-58">
          <mxGeometry width="50" height="50" relative="1" as="geometry">
            <mxPoint x="846.22" y="462.3199999999997" as="sourcePoint" />
            <mxPoint x="860.74" y="449" as="targetPoint" />
          </mxGeometry>
        </mxCell>
        <mxCell id="JsKE7e4aPNdpGavhSwng-60" value="0р." style="text;html=1;align=center;verticalAlign=middle;resizable=0;points=[];autosize=1;strokeColor=none;fillColor=none;fontSize=5;" vertex="1" parent="1">
          <mxGeometry x="842.22" y="449" width="30" height="20" as="geometry" />
        </mxCell>
        <mxCell id="JsKE7e4aPNdpGavhSwng-61" value="" style="endArrow=none;html=1;rounded=0;exitX=0.002;exitY=0.635;exitDx=0;exitDy=0;exitPerimeter=0;entryX=1.005;entryY=0.786;entryDx=0;entryDy=0;entryPerimeter=0;" edge="1" parent="1">
          <mxGeometry width="50" height="50" relative="1" as="geometry">
            <mxPoint x="846.4599999999998" y="519.0999999999999" as="sourcePoint" />
            <mxPoint x="1001.9950000000001" y="518.7399999999998" as="targetPoint" />
          </mxGeometry>
        </mxCell>
        <mxCell id="JsKE7e4aPNdpGavhSwng-62" value="2.1.5" style="text;html=1;align=center;verticalAlign=middle;resizable=0;points=[];autosize=1;strokeColor=none;fillColor=none;fontSize=8;" vertex="1" parent="1">
          <mxGeometry x="845.22" y="519" width="36" height="22" as="geometry" />
        </mxCell>
        <mxCell id="JsKE7e4aPNdpGavhSwng-63" value="" style="endArrow=none;html=1;rounded=0;entryX=0.5;entryY=1;entryDx=0;entryDy=0;" edge="1" parent="1">
          <mxGeometry width="50" height="50" relative="1" as="geometry">
            <mxPoint x="923.6600000000001" y="519" as="sourcePoint" />
            <mxPoint x="923.6600000000001" y="539" as="targetPoint" />
          </mxGeometry>
        </mxCell>
        <mxCell id="JsKE7e4aPNdpGavhSwng-64" value="&lt;font style=&quot;font-size: 8px;&quot;&gt;Внесение брони в бд&lt;/font&gt;" style="rounded=0;whiteSpace=wrap;html=1;gradientColor=none;glass=0;shadow=0;" vertex="1" parent="1">
          <mxGeometry x="1056.9999999999998" y="449" width="155" height="90" as="geometry" />
        </mxCell>
        <mxCell id="JsKE7e4aPNdpGavhSwng-65" value="" style="endArrow=none;html=1;rounded=0;exitX=0.003;exitY=0.15;exitDx=0;exitDy=0;entryX=0.077;entryY=0;entryDx=0;entryDy=0;entryPerimeter=0;jumpSize=100;endSize=6;jumpStyle=none;exitPerimeter=0;" edge="1" parent="1" source="JsKE7e4aPNdpGavhSwng-64" target="JsKE7e4aPNdpGavhSwng-64">
          <mxGeometry width="50" height="50" relative="1" as="geometry">
            <mxPoint x="1056.22" y="462.3199999999997" as="sourcePoint" />
            <mxPoint x="1070.74" y="449" as="targetPoint" />
          </mxGeometry>
        </mxCell>
        <mxCell id="JsKE7e4aPNdpGavhSwng-66" value="0р." style="text;html=1;align=center;verticalAlign=middle;resizable=0;points=[];autosize=1;strokeColor=none;fillColor=none;fontSize=5;" vertex="1" parent="1">
          <mxGeometry x="1052.22" y="449" width="30" height="20" as="geometry" />
        </mxCell>
        <mxCell id="JsKE7e4aPNdpGavhSwng-67" value="" style="endArrow=none;html=1;rounded=0;exitX=0.002;exitY=0.635;exitDx=0;exitDy=0;exitPerimeter=0;entryX=1.005;entryY=0.786;entryDx=0;entryDy=0;entryPerimeter=0;" edge="1" parent="1">
          <mxGeometry width="50" height="50" relative="1" as="geometry">
            <mxPoint x="1056.4599999999998" y="519.0999999999999" as="sourcePoint" />
            <mxPoint x="1211.9950000000001" y="518.7399999999998" as="targetPoint" />
          </mxGeometry>
        </mxCell>
        <mxCell id="JsKE7e4aPNdpGavhSwng-68" value="2.1.4" style="text;html=1;align=center;verticalAlign=middle;resizable=0;points=[];autosize=1;strokeColor=none;fillColor=none;fontSize=8;" vertex="1" parent="1">
          <mxGeometry x="1055.22" y="519" width="36" height="22" as="geometry" />
        </mxCell>
        <mxCell id="JsKE7e4aPNdpGavhSwng-69" value="" style="endArrow=none;html=1;rounded=0;entryX=0.5;entryY=1;entryDx=0;entryDy=0;" edge="1" parent="1">
          <mxGeometry width="50" height="50" relative="1" as="geometry">
            <mxPoint x="1133.66" y="519" as="sourcePoint" />
            <mxPoint x="1133.66" y="539" as="targetPoint" />
          </mxGeometry>
        </mxCell>
        <mxCell id="JsKE7e4aPNdpGavhSwng-70" value="" style="endArrow=classic;html=1;rounded=0;exitX=1;exitY=0.5;exitDx=0;exitDy=0;entryX=0;entryY=0.5;entryDx=0;entryDy=0;" edge="1" parent="1" source="JsKE7e4aPNdpGavhSwng-44" target="JsKE7e4aPNdpGavhSwng-51">
          <mxGeometry width="50" height="50" relative="1" as="geometry">
            <mxPoint x="808.7799999999997" y="462" as="sourcePoint" />
            <mxPoint x="858.7799999999997" y="412" as="targetPoint" />
          </mxGeometry>
        </mxCell>
        <mxCell id="JsKE7e4aPNdpGavhSwng-71" value="" style="endArrow=classic;html=1;rounded=0;entryX=1;entryY=0.5;entryDx=0;entryDy=0;exitX=0;exitY=0.5;exitDx=0;exitDy=0;" edge="1" parent="1" source="JsKE7e4aPNdpGavhSwng-64" target="JsKE7e4aPNdpGavhSwng-58">
          <mxGeometry width="50" height="50" relative="1" as="geometry">
            <mxPoint x="1042.9999999999998" y="479" as="sourcePoint" />
            <mxPoint x="1062.9999999999998" y="409" as="targetPoint" />
          </mxGeometry>
        </mxCell>
        <mxCell id="JsKE7e4aPNdpGavhSwng-72" value="&lt;font style=&quot;font-size: 8px;&quot;&gt;Перейти в профиль&lt;/font&gt;" style="rounded=0;whiteSpace=wrap;html=1;gradientColor=none;glass=0;shadow=0;" vertex="1" parent="1">
          <mxGeometry x="92.55999999999972" y="625" width="155" height="90" as="geometry" />
        </mxCell>
        <mxCell id="JsKE7e4aPNdpGavhSwng-73" value="" style="endArrow=none;html=1;rounded=0;exitX=0.003;exitY=0.15;exitDx=0;exitDy=0;entryX=0.077;entryY=0;entryDx=0;entryDy=0;entryPerimeter=0;jumpSize=100;endSize=6;jumpStyle=none;exitPerimeter=0;" edge="1" parent="1" source="JsKE7e4aPNdpGavhSwng-72" target="JsKE7e4aPNdpGavhSwng-72">
          <mxGeometry width="50" height="50" relative="1" as="geometry">
            <mxPoint x="92.55999999999972" y="638.3199999999997" as="sourcePoint" />
            <mxPoint x="107.08000000000038" y="625" as="targetPoint" />
          </mxGeometry>
        </mxCell>
        <mxCell id="JsKE7e4aPNdpGavhSwng-74" value="0р." style="text;html=1;align=center;verticalAlign=middle;resizable=0;points=[];autosize=1;strokeColor=none;fillColor=none;fontSize=5;" vertex="1" parent="1">
          <mxGeometry x="88.55999999999972" y="625" width="30" height="20" as="geometry" />
        </mxCell>
        <mxCell id="JsKE7e4aPNdpGavhSwng-75" value="" style="endArrow=none;html=1;rounded=0;exitX=0.002;exitY=0.635;exitDx=0;exitDy=0;exitPerimeter=0;entryX=1.005;entryY=0.786;entryDx=0;entryDy=0;entryPerimeter=0;" edge="1" parent="1">
          <mxGeometry width="50" height="50" relative="1" as="geometry">
            <mxPoint x="92.79999999999995" y="695.0999999999999" as="sourcePoint" />
            <mxPoint x="248.3350000000005" y="694.7399999999998" as="targetPoint" />
          </mxGeometry>
        </mxCell>
        <mxCell id="JsKE7e4aPNdpGavhSwng-76" value="2.2.1" style="text;html=1;align=center;verticalAlign=middle;resizable=0;points=[];autosize=1;strokeColor=none;fillColor=none;fontSize=8;" vertex="1" parent="1">
          <mxGeometry x="91.55999999999972" y="695" width="36" height="22" as="geometry" />
        </mxCell>
        <mxCell id="JsKE7e4aPNdpGavhSwng-77" value="" style="endArrow=none;html=1;rounded=0;entryX=0.5;entryY=1;entryDx=0;entryDy=0;" edge="1" parent="1">
          <mxGeometry width="50" height="50" relative="1" as="geometry">
            <mxPoint x="170.00000000000045" y="695" as="sourcePoint" />
            <mxPoint x="170.00000000000045" y="715" as="targetPoint" />
          </mxGeometry>
        </mxCell>
        <mxCell id="JsKE7e4aPNdpGavhSwng-78" value="&lt;font style=&quot;font-size: 8px;&quot;&gt;Нажать на кнопку &quot;Купить билет&quot; возле забронированного спектакля&lt;/font&gt;" style="rounded=0;whiteSpace=wrap;html=1;gradientColor=none;glass=0;shadow=0;" vertex="1" parent="1">
          <mxGeometry x="302.55999999999995" y="625" width="155" height="90" as="geometry" />
        </mxCell>
        <mxCell id="JsKE7e4aPNdpGavhSwng-79" value="" style="endArrow=none;html=1;rounded=0;exitX=0.003;exitY=0.15;exitDx=0;exitDy=0;entryX=0.077;entryY=0;entryDx=0;entryDy=0;entryPerimeter=0;jumpSize=100;endSize=6;jumpStyle=none;exitPerimeter=0;" edge="1" parent="1" source="JsKE7e4aPNdpGavhSwng-78" target="JsKE7e4aPNdpGavhSwng-78">
          <mxGeometry width="50" height="50" relative="1" as="geometry">
            <mxPoint x="302.55999999999995" y="638.3199999999997" as="sourcePoint" />
            <mxPoint x="317.0800000000004" y="625" as="targetPoint" />
          </mxGeometry>
        </mxCell>
        <mxCell id="JsKE7e4aPNdpGavhSwng-80" value="0р." style="text;html=1;align=center;verticalAlign=middle;resizable=0;points=[];autosize=1;strokeColor=none;fillColor=none;fontSize=5;" vertex="1" parent="1">
          <mxGeometry x="298.55999999999995" y="625" width="30" height="20" as="geometry" />
        </mxCell>
        <mxCell id="JsKE7e4aPNdpGavhSwng-81" value="" style="endArrow=none;html=1;rounded=0;exitX=0.002;exitY=0.635;exitDx=0;exitDy=0;exitPerimeter=0;entryX=1.005;entryY=0.786;entryDx=0;entryDy=0;entryPerimeter=0;" edge="1" parent="1">
          <mxGeometry width="50" height="50" relative="1" as="geometry">
            <mxPoint x="302.8000000000002" y="695.0999999999999" as="sourcePoint" />
            <mxPoint x="458.3350000000005" y="694.7399999999998" as="targetPoint" />
          </mxGeometry>
        </mxCell>
        <mxCell id="JsKE7e4aPNdpGavhSwng-82" value="2.2.2" style="text;html=1;align=center;verticalAlign=middle;resizable=0;points=[];autosize=1;strokeColor=none;fillColor=none;fontSize=8;" vertex="1" parent="1">
          <mxGeometry x="301.55999999999995" y="695" width="36" height="22" as="geometry" />
        </mxCell>
        <mxCell id="JsKE7e4aPNdpGavhSwng-83" value="" style="endArrow=none;html=1;rounded=0;entryX=0.5;entryY=1;entryDx=0;entryDy=0;" edge="1" parent="1">
          <mxGeometry width="50" height="50" relative="1" as="geometry">
            <mxPoint x="380.00000000000045" y="695" as="sourcePoint" />
            <mxPoint x="380.00000000000045" y="715" as="targetPoint" />
          </mxGeometry>
        </mxCell>
        <mxCell id="JsKE7e4aPNdpGavhSwng-84" style="edgeStyle=orthogonalEdgeStyle;rounded=0;orthogonalLoop=1;jettySize=auto;html=1;exitX=0;exitY=0.5;exitDx=0;exitDy=0;entryX=0;entryY=0.5;entryDx=0;entryDy=0;" edge="1" parent="1" source="JsKE7e4aPNdpGavhSwng-85" target="JsKE7e4aPNdpGavhSwng-105">
          <mxGeometry relative="1" as="geometry">
            <Array as="points">
              <mxPoint x="73" y="811" />
              <mxPoint x="73" y="899" />
              <mxPoint x="486" y="899" />
              <mxPoint x="486" y="818" />
              <mxPoint x="545" y="818" />
            </Array>
          </mxGeometry>
        </mxCell>
        <mxCell id="JsKE7e4aPNdpGavhSwng-85" value="&lt;font style=&quot;font-size: 8px;&quot;&gt;Уведомление пользователя об успешной покупке&lt;/font&gt;" style="rounded=0;whiteSpace=wrap;html=1;gradientColor=none;glass=0;shadow=0;" vertex="1" parent="1">
          <mxGeometry x="92.55999999999972" y="766" width="155" height="90" as="geometry" />
        </mxCell>
        <mxCell id="JsKE7e4aPNdpGavhSwng-86" value="" style="endArrow=none;html=1;rounded=0;exitX=0.003;exitY=0.15;exitDx=0;exitDy=0;entryX=0.077;entryY=0;entryDx=0;entryDy=0;entryPerimeter=0;jumpSize=100;endSize=6;jumpStyle=none;exitPerimeter=0;" edge="1" parent="1" source="JsKE7e4aPNdpGavhSwng-85" target="JsKE7e4aPNdpGavhSwng-85">
          <mxGeometry width="50" height="50" relative="1" as="geometry">
            <mxPoint x="91.77999999999997" y="779.3199999999997" as="sourcePoint" />
            <mxPoint x="106.30000000000018" y="766" as="targetPoint" />
          </mxGeometry>
        </mxCell>
        <mxCell id="JsKE7e4aPNdpGavhSwng-87" value="0р." style="text;html=1;align=center;verticalAlign=middle;resizable=0;points=[];autosize=1;strokeColor=none;fillColor=none;fontSize=5;" vertex="1" parent="1">
          <mxGeometry x="87.77999999999997" y="766" width="30" height="20" as="geometry" />
        </mxCell>
        <mxCell id="JsKE7e4aPNdpGavhSwng-88" value="" style="endArrow=none;html=1;rounded=0;exitX=0.002;exitY=0.635;exitDx=0;exitDy=0;exitPerimeter=0;entryX=1.005;entryY=0.786;entryDx=0;entryDy=0;entryPerimeter=0;" edge="1" parent="1">
          <mxGeometry width="50" height="50" relative="1" as="geometry">
            <mxPoint x="92.01999999999975" y="836.0999999999999" as="sourcePoint" />
            <mxPoint x="247.5550000000003" y="835.7399999999998" as="targetPoint" />
          </mxGeometry>
        </mxCell>
        <mxCell id="JsKE7e4aPNdpGavhSwng-89" value="2.2.4" style="text;html=1;align=center;verticalAlign=middle;resizable=0;points=[];autosize=1;strokeColor=none;fillColor=none;fontSize=8;" vertex="1" parent="1">
          <mxGeometry x="90.77999999999997" y="836" width="36" height="22" as="geometry" />
        </mxCell>
        <mxCell id="JsKE7e4aPNdpGavhSwng-90" value="" style="endArrow=none;html=1;rounded=0;entryX=0.5;entryY=1;entryDx=0;entryDy=0;" edge="1" parent="1">
          <mxGeometry width="50" height="50" relative="1" as="geometry">
            <mxPoint x="169.22000000000025" y="836" as="sourcePoint" />
            <mxPoint x="169.22000000000025" y="856" as="targetPoint" />
          </mxGeometry>
        </mxCell>
        <mxCell id="JsKE7e4aPNdpGavhSwng-91" value="&lt;font style=&quot;font-size: 8px;&quot;&gt;Создание заказа и списание средств&lt;/font&gt;" style="rounded=0;whiteSpace=wrap;html=1;gradientColor=none;glass=0;shadow=0;" vertex="1" parent="1">
          <mxGeometry x="302.55999999999995" y="766" width="155" height="90" as="geometry" />
        </mxCell>
        <mxCell id="JsKE7e4aPNdpGavhSwng-92" value="" style="endArrow=none;html=1;rounded=0;exitX=0.003;exitY=0.15;exitDx=0;exitDy=0;entryX=0.077;entryY=0;entryDx=0;entryDy=0;entryPerimeter=0;jumpSize=100;endSize=6;jumpStyle=none;exitPerimeter=0;" edge="1" parent="1" source="JsKE7e4aPNdpGavhSwng-91" target="JsKE7e4aPNdpGavhSwng-91">
          <mxGeometry width="50" height="50" relative="1" as="geometry">
            <mxPoint x="301.7800000000002" y="779.3199999999997" as="sourcePoint" />
            <mxPoint x="316.3000000000002" y="766" as="targetPoint" />
          </mxGeometry>
        </mxCell>
        <mxCell id="JsKE7e4aPNdpGavhSwng-93" value="0р." style="text;html=1;align=center;verticalAlign=middle;resizable=0;points=[];autosize=1;strokeColor=none;fillColor=none;fontSize=5;" vertex="1" parent="1">
          <mxGeometry x="297.7800000000002" y="766" width="30" height="20" as="geometry" />
        </mxCell>
        <mxCell id="JsKE7e4aPNdpGavhSwng-94" value="" style="endArrow=none;html=1;rounded=0;exitX=0.002;exitY=0.635;exitDx=0;exitDy=0;exitPerimeter=0;entryX=1.005;entryY=0.786;entryDx=0;entryDy=0;entryPerimeter=0;" edge="1" parent="1">
          <mxGeometry width="50" height="50" relative="1" as="geometry">
            <mxPoint x="302.02" y="836.0999999999999" as="sourcePoint" />
            <mxPoint x="457.5550000000003" y="835.7399999999998" as="targetPoint" />
          </mxGeometry>
        </mxCell>
        <mxCell id="JsKE7e4aPNdpGavhSwng-95" value="2.2.3" style="text;html=1;align=center;verticalAlign=middle;resizable=0;points=[];autosize=1;strokeColor=none;fillColor=none;fontSize=8;" vertex="1" parent="1">
          <mxGeometry x="300.7800000000002" y="836" width="36" height="22" as="geometry" />
        </mxCell>
        <mxCell id="JsKE7e4aPNdpGavhSwng-96" value="" style="endArrow=none;html=1;rounded=0;entryX=0.5;entryY=1;entryDx=0;entryDy=0;" edge="1" parent="1">
          <mxGeometry width="50" height="50" relative="1" as="geometry">
            <mxPoint x="379.22000000000025" y="836" as="sourcePoint" />
            <mxPoint x="379.22000000000025" y="856" as="targetPoint" />
          </mxGeometry>
        </mxCell>
        <mxCell id="JsKE7e4aPNdpGavhSwng-97" value="" style="endArrow=classic;html=1;rounded=0;exitX=1;exitY=0.5;exitDx=0;exitDy=0;entryX=0;entryY=0.5;entryDx=0;entryDy=0;" edge="1" parent="1" source="JsKE7e4aPNdpGavhSwng-72" target="JsKE7e4aPNdpGavhSwng-78">
          <mxGeometry width="50" height="50" relative="1" as="geometry">
            <mxPoint x="248.55999999999995" y="776" as="sourcePoint" />
            <mxPoint x="298.55999999999995" y="726" as="targetPoint" />
          </mxGeometry>
        </mxCell>
        <mxCell id="JsKE7e4aPNdpGavhSwng-98" value="" style="endArrow=classic;html=1;rounded=0;entryX=1;entryY=0.5;entryDx=0;entryDy=0;exitX=0;exitY=0.5;exitDx=0;exitDy=0;" edge="1" parent="1" source="JsKE7e4aPNdpGavhSwng-91" target="JsKE7e4aPNdpGavhSwng-85">
          <mxGeometry width="50" height="50" relative="1" as="geometry">
            <mxPoint x="288.55999999999995" y="796" as="sourcePoint" />
            <mxPoint x="308.55999999999995" y="726" as="targetPoint" />
          </mxGeometry>
        </mxCell>
        <mxCell id="JsKE7e4aPNdpGavhSwng-99" value="" style="endArrow=classic;html=1;rounded=0;exitX=0.5;exitY=1;exitDx=0;exitDy=0;entryX=0.5;entryY=0;entryDx=0;entryDy=0;" edge="1" parent="1" source="JsKE7e4aPNdpGavhSwng-78" target="JsKE7e4aPNdpGavhSwng-91">
          <mxGeometry width="50" height="50" relative="1" as="geometry">
            <mxPoint x="478.55999999999995" y="806" as="sourcePoint" />
            <mxPoint x="388.55999999999995" y="756" as="targetPoint" />
          </mxGeometry>
        </mxCell>
        <mxCell id="JsKE7e4aPNdpGavhSwng-100" value="&lt;font style=&quot;font-size: 8px;&quot;&gt;спектакли&lt;/font&gt;" style="text;html=1;strokeColor=none;fillColor=none;align=center;verticalAlign=middle;whiteSpace=wrap;rounded=0;" vertex="1" parent="1">
          <mxGeometry x="228" y="319" width="60" height="30" as="geometry" />
        </mxCell>
        <mxCell id="JsKE7e4aPNdpGavhSwng-101" value="&lt;font style=&quot;font-size: 8px;&quot;&gt;календарь спектаклей&lt;/font&gt;" style="text;html=1;strokeColor=none;fillColor=none;align=center;verticalAlign=middle;whiteSpace=wrap;rounded=0;" vertex="1" parent="1">
          <mxGeometry x="309" y="547" width="60" height="30" as="geometry" />
        </mxCell>
        <mxCell id="JsKE7e4aPNdpGavhSwng-102" value="&lt;font style=&quot;font-size: 8px;&quot;&gt;успешное бронирование&lt;/font&gt;" style="text;html=1;strokeColor=none;fillColor=none;align=center;verticalAlign=middle;whiteSpace=wrap;rounded=0;" vertex="1" parent="1">
          <mxGeometry x="760" y="457" width="60" height="30" as="geometry" />
        </mxCell>
        <mxCell id="JsKE7e4aPNdpGavhSwng-103" value="&lt;font style=&quot;font-size: 8px;&quot;&gt;электронный билет&lt;/font&gt;" style="text;html=1;strokeColor=none;fillColor=none;align=center;verticalAlign=middle;whiteSpace=wrap;rounded=0;" vertex="1" parent="1">
          <mxGeometry x="20" y="775" width="60" height="30" as="geometry" />
        </mxCell>
        <mxCell id="JsKE7e4aPNdpGavhSwng-104" value="" style="group" vertex="1" connectable="0" parent="1">
          <mxGeometry x="545" y="800" width="34" height="34" as="geometry" />
        </mxCell>
        <mxCell id="JsKE7e4aPNdpGavhSwng-105" value="&lt;font style=&quot;font-size: 15px;&quot;&gt;&amp;amp;&lt;/font&gt;" style="rounded=0;whiteSpace=wrap;html=1;" vertex="1" parent="JsKE7e4aPNdpGavhSwng-104">
          <mxGeometry width="34" height="34" as="geometry" />
        </mxCell>
        <mxCell id="JsKE7e4aPNdpGavhSwng-106" value="" style="line;strokeWidth=2;direction=south;html=1;" vertex="1" parent="JsKE7e4aPNdpGavhSwng-104">
          <mxGeometry x="2.5" width="10" height="34" as="geometry" />
        </mxCell>
        <mxCell id="JsKE7e4aPNdpGavhSwng-107" value="&lt;font style=&quot;font-size: 8px;&quot;&gt;Выбор спектакля до начала которого осталось 6 часов&lt;/font&gt;" style="rounded=0;whiteSpace=wrap;html=1;gradientColor=none;glass=0;shadow=0;" vertex="1" parent="1">
          <mxGeometry x="660.9999999999998" y="627" width="155" height="90" as="geometry" />
        </mxCell>
        <mxCell id="JsKE7e4aPNdpGavhSwng-108" value="" style="endArrow=none;html=1;rounded=0;exitX=0.003;exitY=0.15;exitDx=0;exitDy=0;entryX=0.077;entryY=0;entryDx=0;entryDy=0;entryPerimeter=0;jumpSize=100;endSize=6;jumpStyle=none;exitPerimeter=0;" edge="1" parent="1" source="JsKE7e4aPNdpGavhSwng-107" target="JsKE7e4aPNdpGavhSwng-107">
          <mxGeometry width="50" height="50" relative="1" as="geometry">
            <mxPoint x="660.9999999999998" y="640.3199999999997" as="sourcePoint" />
            <mxPoint x="675.5199999999998" y="627" as="targetPoint" />
          </mxGeometry>
        </mxCell>
        <mxCell id="JsKE7e4aPNdpGavhSwng-109" value="0р." style="text;html=1;align=center;verticalAlign=middle;resizable=0;points=[];autosize=1;strokeColor=none;fillColor=none;fontSize=5;" vertex="1" parent="1">
          <mxGeometry x="656.9999999999998" y="627" width="30" height="20" as="geometry" />
        </mxCell>
        <mxCell id="JsKE7e4aPNdpGavhSwng-110" value="" style="endArrow=none;html=1;rounded=0;exitX=0.002;exitY=0.635;exitDx=0;exitDy=0;exitPerimeter=0;entryX=1.005;entryY=0.786;entryDx=0;entryDy=0;entryPerimeter=0;" edge="1" parent="1">
          <mxGeometry width="50" height="50" relative="1" as="geometry">
            <mxPoint x="661.24" y="697.0999999999999" as="sourcePoint" />
            <mxPoint x="816.7750000000001" y="696.7399999999998" as="targetPoint" />
          </mxGeometry>
        </mxCell>
        <mxCell id="JsKE7e4aPNdpGavhSwng-111" value="3.1.1" style="text;html=1;align=center;verticalAlign=middle;resizable=0;points=[];autosize=1;strokeColor=none;fillColor=none;fontSize=8;" vertex="1" parent="1">
          <mxGeometry x="659.9999999999998" y="697" width="36" height="22" as="geometry" />
        </mxCell>
        <mxCell id="JsKE7e4aPNdpGavhSwng-112" value="" style="endArrow=none;html=1;rounded=0;entryX=0.5;entryY=1;entryDx=0;entryDy=0;" edge="1" parent="1">
          <mxGeometry width="50" height="50" relative="1" as="geometry">
            <mxPoint x="738.44" y="697" as="sourcePoint" />
            <mxPoint x="738.44" y="717" as="targetPoint" />
          </mxGeometry>
        </mxCell>
        <mxCell id="JsKE7e4aPNdpGavhSwng-113" value="&lt;font style=&quot;font-size: 8px;&quot;&gt;Получение аккаунтов пользователей с бронью&lt;/font&gt;" style="rounded=0;whiteSpace=wrap;html=1;gradientColor=none;glass=0;shadow=0;" vertex="1" parent="1">
          <mxGeometry x="871" y="627" width="155" height="90" as="geometry" />
        </mxCell>
        <mxCell id="JsKE7e4aPNdpGavhSwng-114" value="" style="endArrow=none;html=1;rounded=0;exitX=0.003;exitY=0.15;exitDx=0;exitDy=0;entryX=0.077;entryY=0;entryDx=0;entryDy=0;entryPerimeter=0;jumpSize=100;endSize=6;jumpStyle=none;exitPerimeter=0;" edge="1" parent="1" source="JsKE7e4aPNdpGavhSwng-113" target="JsKE7e4aPNdpGavhSwng-113">
          <mxGeometry width="50" height="50" relative="1" as="geometry">
            <mxPoint x="871" y="640.3199999999997" as="sourcePoint" />
            <mxPoint x="885.52" y="627" as="targetPoint" />
          </mxGeometry>
        </mxCell>
        <mxCell id="JsKE7e4aPNdpGavhSwng-115" value="0р." style="text;html=1;align=center;verticalAlign=middle;resizable=0;points=[];autosize=1;strokeColor=none;fillColor=none;fontSize=5;" vertex="1" parent="1">
          <mxGeometry x="867" y="627" width="30" height="20" as="geometry" />
        </mxCell>
        <mxCell id="JsKE7e4aPNdpGavhSwng-116" value="" style="endArrow=none;html=1;rounded=0;exitX=0.002;exitY=0.635;exitDx=0;exitDy=0;exitPerimeter=0;entryX=1.005;entryY=0.786;entryDx=0;entryDy=0;entryPerimeter=0;" edge="1" parent="1">
          <mxGeometry width="50" height="50" relative="1" as="geometry">
            <mxPoint x="871.2400000000002" y="697.0999999999999" as="sourcePoint" />
            <mxPoint x="1026.775" y="696.7399999999998" as="targetPoint" />
          </mxGeometry>
        </mxCell>
        <mxCell id="JsKE7e4aPNdpGavhSwng-117" value="3.1.2" style="text;html=1;align=center;verticalAlign=middle;resizable=0;points=[];autosize=1;strokeColor=none;fillColor=none;fontSize=8;" vertex="1" parent="1">
          <mxGeometry x="870" y="697" width="36" height="22" as="geometry" />
        </mxCell>
        <mxCell id="JsKE7e4aPNdpGavhSwng-118" value="" style="endArrow=none;html=1;rounded=0;entryX=0.5;entryY=1;entryDx=0;entryDy=0;" edge="1" parent="1">
          <mxGeometry width="50" height="50" relative="1" as="geometry">
            <mxPoint x="948.44" y="697" as="sourcePoint" />
            <mxPoint x="948.44" y="717" as="targetPoint" />
          </mxGeometry>
        </mxCell>
        <mxCell id="JsKE7e4aPNdpGavhSwng-119" style="edgeStyle=orthogonalEdgeStyle;rounded=0;orthogonalLoop=1;jettySize=auto;html=1;exitX=1;exitY=0.5;exitDx=0;exitDy=0;entryX=0;entryY=0.25;entryDx=0;entryDy=0;" edge="1" parent="1" source="JsKE7e4aPNdpGavhSwng-120" target="JsKE7e4aPNdpGavhSwng-132">
          <mxGeometry relative="1" as="geometry" />
        </mxCell>
        <mxCell id="JsKE7e4aPNdpGavhSwng-120" value="&lt;font style=&quot;font-size: 8px;&quot;&gt;Отправка уведомления пользователям о том что у них сегодня спектакль&lt;/font&gt;" style="rounded=0;whiteSpace=wrap;html=1;gradientColor=none;glass=0;shadow=0;" vertex="1" parent="1">
          <mxGeometry x="1095.78" y="627" width="155" height="90" as="geometry" />
        </mxCell>
        <mxCell id="JsKE7e4aPNdpGavhSwng-121" value="" style="endArrow=none;html=1;rounded=0;exitX=0.003;exitY=0.15;exitDx=0;exitDy=0;entryX=0.077;entryY=0;entryDx=0;entryDy=0;entryPerimeter=0;jumpSize=100;endSize=6;jumpStyle=none;exitPerimeter=0;" edge="1" parent="1" source="JsKE7e4aPNdpGavhSwng-120" target="JsKE7e4aPNdpGavhSwng-120">
          <mxGeometry width="50" height="50" relative="1" as="geometry">
            <mxPoint x="1094.9999999999998" y="640.3199999999997" as="sourcePoint" />
            <mxPoint x="1109.5200000000002" y="627" as="targetPoint" />
          </mxGeometry>
        </mxCell>
        <mxCell id="JsKE7e4aPNdpGavhSwng-122" value="0р." style="text;html=1;align=center;verticalAlign=middle;resizable=0;points=[];autosize=1;strokeColor=none;fillColor=none;fontSize=5;" vertex="1" parent="1">
          <mxGeometry x="1090.9999999999998" y="627" width="30" height="20" as="geometry" />
        </mxCell>
        <mxCell id="JsKE7e4aPNdpGavhSwng-123" value="" style="endArrow=none;html=1;rounded=0;exitX=0.002;exitY=0.635;exitDx=0;exitDy=0;exitPerimeter=0;entryX=1.005;entryY=0.786;entryDx=0;entryDy=0;entryPerimeter=0;" edge="1" parent="1">
          <mxGeometry width="50" height="50" relative="1" as="geometry">
            <mxPoint x="1095.24" y="697.0999999999999" as="sourcePoint" />
            <mxPoint x="1250.7750000000003" y="696.7399999999998" as="targetPoint" />
          </mxGeometry>
        </mxCell>
        <mxCell id="JsKE7e4aPNdpGavhSwng-124" value="3.1.3" style="text;html=1;align=center;verticalAlign=middle;resizable=0;points=[];autosize=1;strokeColor=none;fillColor=none;fontSize=8;" vertex="1" parent="1">
          <mxGeometry x="1093.9999999999998" y="697" width="36" height="22" as="geometry" />
        </mxCell>
        <mxCell id="JsKE7e4aPNdpGavhSwng-125" value="" style="endArrow=none;html=1;rounded=0;entryX=0.5;entryY=1;entryDx=0;entryDy=0;" edge="1" parent="1">
          <mxGeometry width="50" height="50" relative="1" as="geometry">
            <mxPoint x="1172.4400000000003" y="697" as="sourcePoint" />
            <mxPoint x="1172.4400000000003" y="717" as="targetPoint" />
          </mxGeometry>
        </mxCell>
        <mxCell id="JsKE7e4aPNdpGavhSwng-126" value="" style="endArrow=classic;html=1;rounded=0;exitX=1;exitY=0.5;exitDx=0;exitDy=0;entryX=0;entryY=0.5;entryDx=0;entryDy=0;" edge="1" parent="1" source="JsKE7e4aPNdpGavhSwng-107" target="JsKE7e4aPNdpGavhSwng-113">
          <mxGeometry width="50" height="50" relative="1" as="geometry">
            <mxPoint x="817" y="778" as="sourcePoint" />
            <mxPoint x="867" y="728" as="targetPoint" />
          </mxGeometry>
        </mxCell>
        <mxCell id="JsKE7e4aPNdpGavhSwng-127" value="" style="endArrow=classic;html=1;rounded=0;exitX=1;exitY=0.5;exitDx=0;exitDy=0;entryX=0;entryY=0.5;entryDx=0;entryDy=0;" edge="1" parent="1" source="JsKE7e4aPNdpGavhSwng-113" target="JsKE7e4aPNdpGavhSwng-120">
          <mxGeometry width="50" height="50" relative="1" as="geometry">
            <mxPoint x="1046.9999999999995" y="808" as="sourcePoint" />
            <mxPoint x="1095" y="672" as="targetPoint" />
          </mxGeometry>
        </mxCell>
        <mxCell id="JsKE7e4aPNdpGavhSwng-128" style="edgeStyle=orthogonalEdgeStyle;rounded=0;orthogonalLoop=1;jettySize=auto;html=1;exitX=1;exitY=0.5;exitDx=0;exitDy=0;entryX=0;entryY=0.5;entryDx=0;entryDy=0;" edge="1" parent="1" source="JsKE7e4aPNdpGavhSwng-105" target="JsKE7e4aPNdpGavhSwng-107">
          <mxGeometry relative="1" as="geometry" />
        </mxCell>
        <mxCell id="JsKE7e4aPNdpGavhSwng-129" style="edgeStyle=orthogonalEdgeStyle;rounded=0;orthogonalLoop=1;jettySize=auto;html=1;exitX=1;exitY=0.75;exitDx=0;exitDy=0;entryX=0;entryY=0.5;entryDx=0;entryDy=0;" edge="1" parent="1" source="JsKE7e4aPNdpGavhSwng-105" target="JsKE7e4aPNdpGavhSwng-1">
          <mxGeometry relative="1" as="geometry" />
        </mxCell>
        <mxCell id="JsKE7e4aPNdpGavhSwng-130" value="" style="group" vertex="1" connectable="0" parent="1">
          <mxGeometry x="1511" y="735" width="34" height="34" as="geometry" />
        </mxCell>
        <mxCell id="JsKE7e4aPNdpGavhSwng-131" style="edgeStyle=orthogonalEdgeStyle;rounded=0;orthogonalLoop=1;jettySize=auto;html=1;exitX=1;exitY=0.5;exitDx=0;exitDy=0;" edge="1" parent="JsKE7e4aPNdpGavhSwng-130" source="JsKE7e4aPNdpGavhSwng-132">
          <mxGeometry relative="1" as="geometry">
            <mxPoint x="111" y="17" as="targetPoint" />
          </mxGeometry>
        </mxCell>
        <mxCell id="JsKE7e4aPNdpGavhSwng-132" value="&lt;font style=&quot;font-size: 15px;&quot;&gt;X&lt;/font&gt;" style="rounded=0;whiteSpace=wrap;html=1;" vertex="1" parent="JsKE7e4aPNdpGavhSwng-130">
          <mxGeometry width="34" height="34" as="geometry" />
        </mxCell>
        <mxCell id="JsKE7e4aPNdpGavhSwng-133" value="" style="line;strokeWidth=2;direction=south;html=1;" vertex="1" parent="JsKE7e4aPNdpGavhSwng-130">
          <mxGeometry x="2.5" width="10" height="34" as="geometry" />
        </mxCell>
        <mxCell id="JsKE7e4aPNdpGavhSwng-134" value="&lt;font style=&quot;font-size: 8px;&quot;&gt;Спектакль закончился&lt;/font&gt;" style="text;html=1;strokeColor=none;fillColor=none;align=center;verticalAlign=middle;whiteSpace=wrap;rounded=0;" vertex="1" parent="1">
          <mxGeometry x="1550" y="713" width="60" height="30" as="geometry" />
        </mxCell>
        <mxCell id="JsKE7e4aPNdpGavhSwng-135" style="edgeStyle=orthogonalEdgeStyle;rounded=0;orthogonalLoop=1;jettySize=auto;html=1;exitX=1;exitY=0.5;exitDx=0;exitDy=0;entryX=0;entryY=0.5;entryDx=0;entryDy=0;" edge="1" parent="1" source="JsKE7e4aPNdpGavhSwng-136" target="JsKE7e4aPNdpGavhSwng-44">
          <mxGeometry relative="1" as="geometry" />
        </mxCell>
        <mxCell id="JsKE7e4aPNdpGavhSwng-136" value="&lt;font style=&quot;font-size: 15px;&quot;&gt;&amp;amp;&lt;/font&gt;" style="rounded=0;whiteSpace=wrap;html=1;" vertex="1" parent="1">
          <mxGeometry x="521" y="339" width="34" height="34" as="geometry" />
        </mxCell>
        <mxCell id="JsKE7e4aPNdpGavhSwng-137" value="" style="line;strokeWidth=2;direction=south;html=1;" vertex="1" parent="1">
          <mxGeometry x="523" y="339" width="10" height="34" as="geometry" />
        </mxCell>
        <mxCell id="JsKE7e4aPNdpGavhSwng-138" style="edgeStyle=orthogonalEdgeStyle;rounded=0;orthogonalLoop=1;jettySize=auto;html=1;exitX=0;exitY=0.5;exitDx=0;exitDy=0;entryX=0;entryY=0.5;entryDx=0;entryDy=0;" edge="1" parent="1" source="JsKE7e4aPNdpGavhSwng-139" target="JsKE7e4aPNdpGavhSwng-72">
          <mxGeometry relative="1" as="geometry">
            <Array as="points">
              <mxPoint x="503" y="525" />
              <mxPoint x="503" y="591" />
              <mxPoint x="73" y="591" />
              <mxPoint x="73" y="670" />
            </Array>
          </mxGeometry>
        </mxCell>
        <mxCell id="JsKE7e4aPNdpGavhSwng-139" value="&lt;font style=&quot;font-size: 15px;&quot;&gt;&amp;amp;&lt;/font&gt;" style="rounded=0;whiteSpace=wrap;html=1;" vertex="1" parent="1">
          <mxGeometry x="521" y="508" width="34" height="34" as="geometry" />
        </mxCell>
        <mxCell id="JsKE7e4aPNdpGavhSwng-140" value="" style="line;strokeWidth=2;direction=south;html=1;" vertex="1" parent="1">
          <mxGeometry x="523" y="508" width="10" height="34" as="geometry" />
        </mxCell>
        <mxCell id="JsKE7e4aPNdpGavhSwng-141" style="edgeStyle=orthogonalEdgeStyle;rounded=0;orthogonalLoop=1;jettySize=auto;html=1;exitX=0.5;exitY=1;exitDx=0;exitDy=0;entryX=0.5;entryY=0;entryDx=0;entryDy=0;" edge="1" parent="1" source="JsKE7e4aPNdpGavhSwng-142" target="JsKE7e4aPNdpGavhSwng-64">
          <mxGeometry relative="1" as="geometry" />
        </mxCell>
        <mxCell id="JsKE7e4aPNdpGavhSwng-142" value="&lt;font style=&quot;font-size: 8px;&quot;&gt;Нажатие на кнопку &quot;Подтвердить&quot;&lt;/font&gt;" style="rounded=0;whiteSpace=wrap;html=1;gradientColor=none;glass=0;shadow=0;" vertex="1" parent="1">
          <mxGeometry x="1056.9999999999998" y="311" width="155" height="90" as="geometry" />
        </mxCell>
        <mxCell id="JsKE7e4aPNdpGavhSwng-143" value="" style="endArrow=none;html=1;rounded=0;exitX=0.003;exitY=0.15;exitDx=0;exitDy=0;entryX=0.077;entryY=0;entryDx=0;entryDy=0;entryPerimeter=0;jumpSize=100;endSize=6;jumpStyle=none;exitPerimeter=0;" edge="1" parent="1" source="JsKE7e4aPNdpGavhSwng-142" target="JsKE7e4aPNdpGavhSwng-142">
          <mxGeometry width="50" height="50" relative="1" as="geometry">
            <mxPoint x="1056.9999999999998" y="324.3199999999997" as="sourcePoint" />
            <mxPoint x="1071.5200000000002" y="311" as="targetPoint" />
          </mxGeometry>
        </mxCell>
        <mxCell id="JsKE7e4aPNdpGavhSwng-144" value="0р." style="text;html=1;align=center;verticalAlign=middle;resizable=0;points=[];autosize=1;strokeColor=none;fillColor=none;fontSize=5;" vertex="1" parent="1">
          <mxGeometry x="1052.9999999999998" y="311" width="30" height="20" as="geometry" />
        </mxCell>
        <mxCell id="JsKE7e4aPNdpGavhSwng-145" value="" style="endArrow=none;html=1;rounded=0;exitX=0.002;exitY=0.635;exitDx=0;exitDy=0;exitPerimeter=0;entryX=1.005;entryY=0.786;entryDx=0;entryDy=0;entryPerimeter=0;" edge="1" parent="1">
          <mxGeometry width="50" height="50" relative="1" as="geometry">
            <mxPoint x="1057.24" y="381.0999999999999" as="sourcePoint" />
            <mxPoint x="1212.7750000000003" y="380.7399999999998" as="targetPoint" />
          </mxGeometry>
        </mxCell>
        <mxCell id="JsKE7e4aPNdpGavhSwng-146" value="2.1.3" style="text;html=1;align=center;verticalAlign=middle;resizable=0;points=[];autosize=1;strokeColor=none;fillColor=none;fontSize=8;" vertex="1" parent="1">
          <mxGeometry x="1055.9999999999998" y="381" width="36" height="22" as="geometry" />
        </mxCell>
        <mxCell id="JsKE7e4aPNdpGavhSwng-147" value="" style="endArrow=none;html=1;rounded=0;entryX=0.5;entryY=1;entryDx=0;entryDy=0;" edge="1" parent="1">
          <mxGeometry width="50" height="50" relative="1" as="geometry">
            <mxPoint x="1134.4400000000003" y="381" as="sourcePoint" />
            <mxPoint x="1134.4400000000003" y="401" as="targetPoint" />
          </mxGeometry>
        </mxCell>
      </root>
    </mxGraphModel>
  </diagram>
</mxfile>
